<svg version="1.1" id="Layer_1" xmlns="http://www.w3.org/2000/svg" xmlns:xlink="http://www.w3.org/1999/xlink" x="0px" y="0px"
	 width="100%" viewBox="0 0 1920 1080" enable-background="new 0 0 1920 1080" xml:space="preserve">
<path fill="#48AFB4" opacity="1.000000" stroke="none" 
	d="
M1412.000000,1081.000000 
	C941.333435,1081.000000 471.166840,1081.000000 1.000189,1081.000000 
	C1.000126,721.000122 1.000126,361.000305 1.000063,1.000334 
	C640.999756,1.000223 1280.999512,1.000223 1920.999512,1.000111 
	C1920.999634,360.999664 1920.999634,720.999329 1920.999756,1080.999512 
	C1751.500000,1081.000000 1582.000000,1081.000000 1412.000000,1081.000000 
M1156.986938,925.452332 
	C1156.986938,925.452332 1156.985840,925.910095 1156.415283,926.307129 
	C1153.206177,927.825500 1150.380493,930.091675 1151.159546,933.832703 
	C1151.629272,936.088928 1153.571655,938.854675 1155.585083,939.757507 
	C1157.876465,940.785034 1161.280396,940.745605 1163.664307,939.807190 
	C1166.907349,938.530457 1169.242676,938.097168 1172.598267,939.950867 
	C1177.363281,942.583313 1180.215942,940.517090 1179.265137,935.788208 
	C1177.751831,934.065491 1176.466553,932.202698 1176.121582,930.179626 
	C1175.680664,927.593689 1176.564087,924.708191 1175.829590,922.266785 
	C1175.095581,919.827148 1173.570190,916.860352 1171.511475,915.735291 
	C1166.390503,912.936829 1160.794312,913.579285 1155.860596,916.583008 
	C1154.324707,917.518066 1152.986450,919.929626 1152.930908,921.708008 
	C1152.898071,922.760254 1155.552734,923.896362 1156.986938,925.452332 
M1163.500000,861.064148 
	C1200.463745,861.164368 1237.428833,861.115234 1274.390137,861.466614 
	C1283.995483,861.557861 1288.535400,857.206238 1288.431641,846.756165 
	C1288.122192,815.600281 1288.288452,784.439514 1288.285278,753.280701 
	C1288.278564,687.791260 1288.281494,622.301880 1288.282959,556.812439 
	C1288.283081,550.378296 1288.290649,550.354675 1294.896606,550.336670 
	C1304.561646,550.310364 1314.226685,550.319580 1323.891724,550.318176 
	C1334.187134,550.316711 1344.482666,550.359375 1354.777710,550.303894 
	C1359.265015,550.279724 1362.921753,548.461609 1364.962158,544.349426 
	C1366.964722,540.313477 1366.789917,536.309814 1363.734375,532.720032 
	C1362.124390,530.828247 1360.588501,528.857544 1358.836670,527.104797 
	C1298.758789,466.994141 1238.671143,406.893280 1178.518433,346.857574 
	C1176.101807,344.445618 1175.028442,342.055542 1175.035645,338.585693 
	C1175.148682,284.261353 1175.123169,229.936752 1175.130493,175.612213 
	C1175.131104,170.446671 1175.277588,165.276566 1175.109009,160.116653 
	C1174.854492,152.324753 1170.830811,147.992065 1163.012817,147.949677 
	C1133.685913,147.790634 1104.356812,147.760117 1075.030640,147.977615 
	C1065.753540,148.046417 1061.918335,152.433914 1061.899414,161.727661 
	C1061.861084,180.557800 1061.906738,199.388107 1061.917480,218.218353 
	C1061.918457,219.789627 1061.917603,221.360901 1061.917603,224.130051 
	C1059.360107,221.986679 1057.682739,220.716766 1056.160889,219.281784 
	C1049.747925,213.234863 1043.386230,207.133362 1036.996582,201.061584 
	C1015.770020,180.891098 994.524353,160.740677 973.320374,140.546463 
	C967.514893,135.017441 961.181946,134.975449 955.411499,140.782166 
	C917.259705,179.174271 879.179321,217.637589 840.991699,255.994003 
	C794.333862,302.858032 747.548706,349.595306 700.902039,396.470459 
	C657.897095,439.686066 614.985474,482.994720 572.116516,526.345276 
	C570.226929,528.256104 568.432373,530.827332 567.864502,533.374329 
	C566.028503,541.608398 570.956299,546.999329 580.238403,547.060730 
	C598.234436,547.179626 616.231934,547.074158 634.228821,547.082031 
	C640.717407,547.084900 640.729492,547.111572 640.758179,553.613220 
	C641.080811,626.744141 641.413147,699.875061 641.711487,773.006104 
	C641.810730,797.335144 641.793762,821.664734 641.886658,845.993835 
	C641.913879,853.129395 645.173462,856.666748 652.270630,857.320862 
	C656.564514,857.716614 660.880310,858.047302 665.188965,858.082703 
	C709.003357,858.441833 752.818176,858.760071 796.633240,859.038818 
	C852.942688,859.397034 909.252258,859.726257 965.562012,860.035400 
	C1031.207886,860.395935 1096.854004,860.721252 1163.500000,861.064148 
M921.380371,910.534424 
	C922.742126,911.464417 924.532471,912.109131 925.379639,913.381714 
	C927.369812,916.371094 929.300537,916.132751 931.887756,914.030212 
	C930.437317,910.262756 929.031982,906.612366 927.733887,903.240417 
	C917.073608,903.240417 906.956177,903.240417 896.578247,903.240417 
	C896.578247,905.072876 896.578247,906.671265 896.578247,908.885803 
	C901.687134,907.796692 900.904480,911.402283 900.912476,914.434387 
	C900.925293,919.266357 900.699402,924.111145 900.986145,928.926086 
	C901.205994,932.616516 900.645752,935.380737 896.208008,935.682129 
	C896.381226,937.652344 896.520020,939.231384 896.665527,940.886475 
	C907.600769,940.886475 918.079895,940.886475 928.842712,940.886475 
	C930.201477,937.160828 931.684082,933.470703 932.834045,929.679749 
	C933.123108,928.727173 932.501160,926.580566 932.027283,926.495789 
	C930.859558,926.286987 928.835632,926.552246 928.381775,927.336304 
	C924.151611,934.645325 917.553833,934.518555 910.355225,933.640137 
	C910.355225,930.340149 910.355225,927.276428 910.355225,924.212646 
	C910.769775,923.839966 911.184387,923.467224 911.598938,923.094482 
	C913.290039,924.510498 914.917847,926.013245 916.695190,927.311096 
	C917.822693,928.134338 919.172729,928.652832 920.862671,929.538452 
	C920.862671,923.302368 920.862671,918.344727 920.862671,912.334900 
	C919.118469,913.269653 917.019043,913.745972 916.859375,914.589539 
	C916.045532,918.887146 913.249878,918.009521 910.365967,917.782593 
	C910.365967,915.102356 910.365967,912.711182 910.365967,910.253906 
	C913.991333,910.253906 917.295471,910.253906 921.380371,910.534424 
M605.077026,903.461182 
	C594.417297,905.379211 588.239197,911.974792 587.991699,921.701111 
	C587.776550,930.154602 593.379639,937.769897 601.426880,939.961487 
	C612.017761,942.845825 622.523315,939.210754 626.536560,930.917969 
	C629.702820,924.375366 629.691040,917.636719 625.562622,911.474976 
	C620.907837,904.527527 613.848694,902.719055 605.077026,903.461182 
M1305.151855,919.028992 
	C1306.489624,918.073853 1308.242554,917.358337 1308.990601,916.062683 
	C1309.365479,915.413391 1307.603516,912.578796 1307.328247,912.653442 
	C1304.677002,913.371582 1302.136597,914.499146 1298.865112,915.784180 
	C1292.130371,913.154968 1285.303345,914.005127 1281.949219,918.437439 
	C1278.499390,922.996460 1280.289551,927.007812 1283.628418,930.600281 
	C1277.794189,935.977295 1277.747314,936.607422 1282.575806,941.303162 
	C1277.167725,945.501221 1276.776855,947.950867 1281.093750,950.592224 
	C1286.638428,953.984924 1300.906006,953.499817 1306.117920,949.741577 
	C1310.744019,946.405640 1310.352051,940.883545 1305.023315,938.848816 
	C1301.837402,937.632141 1298.244629,937.478943 1294.833618,936.854248 
	C1292.273926,936.385437 1289.712280,935.927002 1287.151489,935.463928 
	C1287.213745,934.946594 1287.275879,934.429321 1287.338135,933.911987 
	C1288.521484,933.854980 1289.712158,933.682861 1290.886841,933.759094 
	C1300.731201,934.398132 1304.882080,929.955566 1303.608398,920.146179 
	C1303.568604,919.840210 1304.083740,919.462219 1305.151855,919.028992 
M1062.044067,911.675537 
	C1057.555420,920.145935 1058.456909,928.878418 1064.466064,935.135437 
	C1070.177979,941.082947 1080.085083,942.760315 1087.959229,938.493530 
	C1091.435059,936.610168 1094.267334,933.539551 1097.861450,930.627380 
	C1095.668091,929.320129 1094.471069,928.606689 1093.376953,927.954590 
	C1085.634155,935.461670 1079.386475,937.010864 1074.354614,932.900269 
	C1069.306030,928.776184 1067.132812,918.869690 1071.356445,913.825012 
	C1080.088867,903.395264 1086.086182,910.548157 1091.560425,918.162415 
	C1093.084961,917.601746 1094.427979,917.107849 1095.796631,916.604492 
	C1094.817261,912.764954 1094.122314,909.164734 1092.902710,905.752075 
	C1092.496094,904.614441 1090.813721,903.344177 1089.595947,903.209778 
	C1087.195679,902.945007 1084.647949,903.874023 1082.275391,903.527527 
	C1074.182495,902.345520 1067.494629,904.429932 1062.044067,911.675537 
M676.911743,939.884338 
	C680.133850,939.796326 683.357971,939.750549 686.576721,939.594238 
	C687.526123,939.548096 688.529968,938.853760 689.389587,939.031921 
	C693.190063,939.819580 696.947021,940.817078 700.976562,941.801208 
	C700.976562,938.685852 700.976562,937.067688 700.976562,935.449524 
	C700.471008,935.594849 699.965515,935.740112 699.459961,935.885437 
	C698.693909,934.197205 697.441589,932.558105 697.264709,930.810242 
	C696.914917,927.353882 697.159058,923.837219 697.158813,920.345520 
	C697.158325,913.950134 697.158630,907.554810 697.158630,900.862671 
	C692.678772,901.820190 689.000122,902.606445 685.118164,903.436157 
	C685.118164,905.055847 685.118164,906.671814 685.118164,908.569092 
	C686.265625,908.858887 687.473572,909.163879 688.708374,909.475708 
	C688.708374,911.624939 688.708374,913.571289 688.708374,915.262390 
	C685.622498,914.961121 682.647705,914.172485 679.801208,914.499512 
	C674.375793,915.123047 671.175354,918.859558 670.159058,923.947571 
	C668.903015,930.234985 670.257263,935.879700 676.911743,939.884338 
M661.158630,913.512573 
	C661.158630,909.407288 661.158630,905.302002 661.158630,900.771423 
	C658.534241,901.405273 656.625854,901.901123 654.700867,902.321045 
	C652.815430,902.732361 650.913208,903.066223 649.145752,903.409302 
	C649.145752,905.375977 649.145752,906.992371 649.145752,908.709961 
	C654.860046,908.855835 652.446411,912.764465 652.811340,915.762085 
	C651.590515,915.425049 650.657837,915.158691 649.720337,914.910034 
	C643.881714,913.362122 639.062683,914.932495 636.077026,919.351379 
	C632.841431,924.140198 633.026794,931.740051 636.490112,936.289673 
	C639.752197,940.574951 644.319153,941.703247 650.366882,939.734192 
	C651.292175,939.432922 652.834412,938.698853 653.083740,938.999634 
	C656.609009,943.255005 660.973816,939.932983 665.452454,941.204895 
	C665.076355,938.669189 664.999146,935.491028 664.535889,935.433655 
	C659.551575,934.817322 661.341553,931.093872 661.220276,928.501343 
	C661.002502,923.846497 661.158691,919.174072 661.158630,913.512573 
M794.620117,908.989746 
	C795.411011,910.240051 796.860779,911.476562 796.887451,912.742981 
	C797.082642,922.026428 796.992737,931.315857 796.992737,941.608521 
	C800.120300,940.765991 802.569885,940.106079 806.009644,939.179382 
	C812.388855,941.682678 816.985291,941.178040 820.796509,936.955994 
	C824.679504,932.654419 825.457397,924.792175 822.390381,919.656067 
	C818.250977,912.723694 812.231873,913.578003 805.288086,916.583313 
	C805.288086,910.969177 805.288086,906.088989 805.288086,900.878662 
	C800.805115,901.848816 797.001221,902.671997 792.732849,903.595764 
	C793.084473,905.454041 793.407349,907.160339 794.620117,908.989746 
M1248.539062,941.006042 
	C1251.324219,941.006042 1254.109375,941.006042 1257.217529,941.006042 
	C1257.029541,938.774170 1257.485840,936.198120 1256.658203,935.682129 
	C1251.860352,932.691162 1254.678345,928.234863 1254.365845,924.535461 
	C1254.280884,923.529114 1256.919434,921.889709 1258.579346,921.281128 
	C1259.681641,920.876953 1262.432007,921.721313 1262.454834,922.120239 
	C1262.687744,926.208374 1262.839600,930.362305 1262.312256,934.406311 
	C1262.054810,936.380798 1260.319702,938.162598 1258.894775,940.660095 
	C1265.420166,940.660095 1270.310791,940.660095 1275.861938,940.660095 
	C1275.402832,938.538208 1275.243164,935.516357 1274.651367,935.429260 
	C1270.141235,934.765503 1271.496216,931.455139 1271.344482,928.893494 
	C1271.197021,926.404114 1271.265137,923.900574 1271.277832,921.403442 
	C1271.296753,917.665405 1269.344971,915.001587 1265.831177,914.812317 
	C1261.868042,914.598755 1257.842651,915.539673 1253.687012,915.995728 
	C1250.026733,911.316650 1245.981445,917.085388 1242.047607,916.129944 
	C1242.047607,918.359131 1242.047607,919.966614 1242.047607,920.469666 
	C1243.754028,922.103210 1245.634155,923.071899 1245.647705,924.065857 
	C1245.695679,927.596436 1246.274902,933.252197 1244.513062,934.224304 
	C1241.010864,936.156433 1241.955200,938.083984 1242.028076,941.006042 
	C1243.990479,941.006042 1245.785278,941.006042 1248.539062,941.006042 
M1002.972107,921.229919 
	C1004.249023,922.184326 1006.575928,923.099731 1006.613098,924.100159 
	C1006.743652,927.612793 1007.250488,933.264221 1005.482178,934.239990 
	C1001.953796,936.187195 1002.971252,938.116699 1003.032837,940.670959 
	C1008.128723,940.670959 1013.020569,940.670959 1018.221863,940.670959 
	C1018.026978,938.694885 1018.439209,936.093689 1017.613464,935.611023 
	C1012.553711,932.654236 1015.907288,928.119812 1015.352844,924.427979 
	C1015.223267,923.564758 1017.655579,921.901794 1019.179688,921.338562 
	C1020.364624,920.900818 1023.199829,921.567627 1023.206116,921.800232 
	C1023.323242,926.119690 1023.370117,930.475464 1022.881897,934.760986 
	C1022.666809,936.649048 1021.229553,938.397766 1020.149353,940.616211 
	C1026.509888,940.616211 1031.396240,940.616211 1037.243042,940.616211 
	C1036.358887,938.325256 1035.846313,936.618591 1035.054199,935.053284 
	C1034.293091,933.549194 1032.683472,932.280273 1032.440796,930.750427 
	C1032.002563,927.987122 1032.369995,925.104309 1032.284546,922.274963 
	C1032.112793,916.597839 1028.421387,913.378235 1022.797058,914.320923 
	C1020.061096,914.779480 1017.444946,915.952942 1015.105713,916.697327 
	C1011.145996,911.070251 1007.049988,917.300842 1002.829041,915.784790 
	C1002.829041,917.750000 1002.829041,919.051086 1002.972107,921.229919 
M1213.314697,925.770996 
	C1214.777344,915.296631 1208.370483,911.095703 1196.127441,916.730713 
	C1192.153442,911.070190 1188.052856,917.303528 1184.009277,915.837524 
	C1184.009277,918.065063 1184.009277,919.686218 1184.009277,921.307312 
	C1184.386963,921.143982 1184.764648,920.980652 1185.142334,920.817261 
	C1186.035767,922.445435 1187.781738,924.145691 1187.651367,925.687256 
	C1187.349243,929.260254 1190.348389,934.348999 1183.771851,935.714172 
	C1183.858398,937.405518 1183.940186,939.004822 1184.022949,940.621216 
	C1189.199463,940.621216 1194.069946,940.621216 1199.264526,940.621216 
	C1199.028320,938.596924 1199.405029,936.023865 1198.558716,935.524597 
	C1193.504272,932.543152 1196.938965,928.020203 1196.361694,924.329224 
	C1196.233032,923.506409 1198.729614,921.859741 1200.271729,921.322876 
	C1201.456421,920.910278 1204.248169,921.579041 1204.264771,921.880005 
	C1204.496704,926.104065 1204.686279,930.384155 1204.195801,934.569641 
	C1203.978149,936.426575 1202.212524,938.102051 1200.614014,940.745483 
	C1207.178955,940.745483 1212.087524,940.745483 1217.585571,940.745483 
	C1217.349854,938.764648 1217.433838,935.655823 1216.897217,935.544739 
	C1210.996582,934.323242 1214.111816,929.743713 1213.314697,925.770996 
M733.209534,940.449585 
	C745.638123,942.278931 751.950745,936.933777 752.005615,924.523193 
	C752.021057,921.026001 752.197449,917.515442 751.953125,914.035400 
	C751.727600,910.824524 752.220215,908.468079 756.010437,908.690491 
	C756.010437,906.631226 756.010437,905.011902 756.010437,903.362427 
	C749.892029,903.362427 744.022522,903.362427 738.213745,903.362427 
	C738.213745,905.365173 738.213745,906.989746 738.213745,908.614258 
	C738.651428,908.403748 739.089111,908.193176 739.526794,907.982666 
	C740.622253,909.500916 742.551819,910.961365 742.661926,912.548035 
	C743.041382,918.016174 742.936584,923.534485 742.714233,929.021484 
	C742.583252,932.252441 741.232666,934.881287 737.363098,934.976074 
	C733.576721,935.068848 732.014160,933.121948 731.963257,929.425964 
	C731.918213,926.156677 730.334412,923.725220 726.751282,924.338074 
	C723.224976,924.941223 721.823792,927.699036 722.486755,931.093750 
	C723.535767,936.464722 727.203369,939.261292 733.209534,940.449585 
M786.451904,936.975891 
	C790.586182,932.011414 791.554749,926.150391 789.031921,921.363770 
	C786.515930,916.590088 780.359131,913.600220 774.175537,914.149414 
	C765.350708,914.932983 759.886230,920.386047 760.294983,928.000732 
	C760.711914,935.768188 766.490662,941.111938 775.163818,940.734802 
	C778.772583,940.577881 782.301941,938.593384 786.451904,936.975891 
M957.532532,934.175781 
	C959.763367,929.728516 961.215393,924.542358 964.492798,921.088135 
	C966.760498,918.698181 967.661072,917.193237 966.834595,914.253784 
	C962.323242,914.253784 957.912476,914.253784 953.601196,914.253784 
	C952.346436,917.761169 952.678467,920.273376 957.452637,920.635803 
	C955.641907,924.409668 954.120300,927.580994 952.080078,931.833252 
	C950.120056,927.567810 948.651794,924.372437 947.183533,921.177063 
	C947.669067,921.247314 948.154602,921.317566 948.640198,921.387817 
	C949.484924,919.218384 950.329712,917.049011 951.393921,914.316101 
	C944.895874,914.316101 939.674072,914.316101 933.889893,914.316101 
	C934.290955,916.413452 934.191284,918.354980 935.026611,919.727417 
	C936.574280,922.270142 938.978943,924.301208 940.461487,926.871399 
	C942.613342,930.601624 944.032593,934.760559 946.252441,938.442261 
	C947.037048,939.743530 949.259216,940.840637 950.815552,940.828308 
	C952.384460,940.816040 954.139587,939.533630 955.436462,938.383118 
	C956.347168,937.575134 956.626648,936.055603 957.532532,934.175781 
M831.785950,926.728088 
	C836.807373,928.960510 841.828796,931.192993 847.123169,933.546753 
	C840.779907,938.965759 835.081848,928.122009 829.004761,933.453674 
	C829.810242,935.469238 830.388855,937.395813 831.347595,939.109802 
	C831.811768,939.939514 833.524231,941.061768 833.762939,940.877136 
	C836.919373,938.435303 839.969543,940.686279 843.036865,940.875793 
	C848.527466,941.214905 853.615356,938.117371 854.426514,933.947815 
	C855.260132,929.663635 853.357727,927.358887 847.023560,924.993958 
	C843.886780,923.822754 840.746033,922.661865 837.002197,921.271667 
	C842.760803,917.282776 847.939514,925.471130 853.633423,919.813782 
	C852.102661,917.919678 850.896667,915.128601 848.870178,914.266907 
	C846.620544,913.310242 843.488281,913.608765 840.982239,914.273132 
	C837.463135,915.206116 833.659058,916.388306 831.005981,918.663818 
	C829.812195,919.687683 831.107056,923.613037 831.785950,926.728088 
M1137.907959,933.855347 
	C1131.064209,934.076050 1129.768921,933.246155 1129.172729,927.797607 
	C1135.101685,927.797607 1140.981812,927.797607 1146.871338,927.797607 
	C1146.324707,919.266357 1142.709351,915.171753 1135.301270,914.234375 
	C1128.798340,913.411438 1122.065308,917.234131 1119.998047,922.923035 
	C1117.810181,928.943298 1120.210693,935.349365 1125.934692,938.766052 
	C1132.588501,942.737854 1140.952515,941.006714 1147.035034,934.247498 
	C1145.965210,933.274719 1144.894775,932.301147 1143.893433,931.390564 
	C1141.979614,932.241516 1140.332031,932.974121 1137.907959,933.855347 
M986.502625,933.978271 
	C982.821655,933.866272 980.112854,932.662109 979.949280,927.864990 
	C986.058228,927.864990 991.948242,927.864990 997.846252,927.864990 
	C997.434265,919.567932 994.025757,915.502808 986.877869,914.331421 
	C980.210266,913.238647 973.186584,917.005493 971.019348,922.836609 
	C968.786987,928.842896 971.142883,935.244019 976.861633,938.711365 
	C983.482056,942.725342 991.626038,941.103455 998.081421,934.334900 
	C997.025391,933.341553 995.970703,932.349548 995.203857,931.628174 
	C992.292419,932.490112 989.799805,933.228088 986.502625,933.978271 
M1111.624878,901.262878 
	C1107.771484,901.939819 1103.918091,902.616760 1098.624512,903.546753 
	C1100.323608,906.350220 1101.576538,908.417480 1102.829346,910.484741 
	C1103.866699,917.089539 1103.928101,924.243713 1103.803833,931.394714 
	C1103.784058,932.538330 1103.114014,934.522034 1102.437256,934.665161 
	C1097.924194,935.620117 1100.369995,938.468933 1100.083984,940.731812 
	C1105.654175,940.731812 1110.753052,940.731812 1116.617432,940.731812 
	C1116.020752,938.563843 1115.755005,935.433289 1115.028320,935.322266 
	C1111.343140,934.759460 1112.138428,932.217407 1112.120972,930.040161 
	C1112.046387,920.716370 1112.042236,911.392090 1111.624878,901.262878 
M1223.033081,940.992981 
	C1227.961426,940.992981 1232.889771,940.992981 1237.849121,940.992981 
	C1237.849121,938.777466 1237.849121,937.156860 1237.849121,934.962708 
	C1233.703247,936.014893 1233.836060,933.352722 1233.859497,930.658752 
	C1233.906860,925.213562 1233.873535,919.767639 1233.873535,913.934631 
	C1229.486572,914.827209 1225.656616,915.606384 1221.562622,916.439331 
	C1221.562622,917.993347 1221.562622,919.601807 1221.562622,921.572144 
	C1225.460083,921.486328 1225.793213,924.130188 1225.351440,927.123901 
	C1224.967773,929.723877 1225.138672,933.877930 1223.716919,934.567688 
	C1219.931030,936.404541 1221.226929,938.406433 1223.033081,940.992981 
M1231.560059,902.755554 
	C1228.227661,901.327148 1225.688599,902.736816 1225.137695,905.835876 
	C1224.844116,907.488159 1226.421631,910.138062 1227.947021,911.208496 
	C1228.920410,911.891479 1231.891113,911.051880 1233.001953,909.935425 
	C1235.200439,907.725647 1234.614746,905.132263 1231.560059,902.755554 
M868.233826,932.066406 
	C864.898315,930.259766 861.962830,931.164185 861.174866,934.616272 
	C860.794189,936.284119 862.660217,938.942444 864.226318,940.359619 
	C864.926331,940.993103 868.538696,940.047668 868.824890,939.167236 
	C869.478149,937.157104 868.895386,934.745178 868.233826,932.066406 
M1321.233887,932.066467 
	C1317.898438,930.259766 1314.963135,931.164246 1314.175049,934.616272 
	C1313.794312,936.284119 1315.660156,938.942566 1317.226196,940.359558 
	C1317.926392,940.993042 1321.538696,940.047607 1321.824951,939.167236 
	C1322.478149,937.157043 1321.895386,934.745178 1321.233887,932.066467 
z"/>
<path fill="#000000" opacity="1.000000" stroke="none" 
	d="
M1163.000000,861.062988 
	C1096.854004,860.721252 1031.207886,860.395935 965.562012,860.035400 
	C909.252258,859.726257 852.942688,859.397034 796.633240,859.038818 
	C752.818176,858.760071 709.003357,858.441833 665.188965,858.082703 
	C660.880310,858.047302 656.564514,857.716614 652.270630,857.320862 
	C645.173462,856.666748 641.913879,853.129395 641.886658,845.993835 
	C641.793762,821.664734 641.810730,797.335144 641.711487,773.006104 
	C641.413147,699.875061 641.080811,626.744141 640.758179,553.613220 
	C640.729492,547.111572 640.717407,547.084900 634.228821,547.082031 
	C616.231934,547.074158 598.234436,547.179626 580.238403,547.060730 
	C570.956299,546.999329 566.028503,541.608398 567.864502,533.374329 
	C568.432373,530.827332 570.226929,528.256104 572.116516,526.345276 
	C614.985474,482.994720 657.897095,439.686066 700.902039,396.470459 
	C747.548706,349.595306 794.333862,302.858032 840.991699,255.994003 
	C879.179321,217.637589 917.259705,179.174271 955.411499,140.782166 
	C961.181946,134.975449 967.514893,135.017441 973.320374,140.546463 
	C994.524353,160.740677 1015.770020,180.891098 1036.996582,201.061584 
	C1043.386230,207.133362 1049.747925,213.234863 1056.160889,219.281784 
	C1057.682739,220.716766 1059.360107,221.986679 1061.917603,224.130051 
	C1061.917603,221.360901 1061.918457,219.789627 1061.917480,218.218353 
	C1061.906738,199.388107 1061.861084,180.557800 1061.899414,161.727661 
	C1061.918335,152.433914 1065.753540,148.046417 1075.030640,147.977615 
	C1104.356812,147.760117 1133.685913,147.790634 1163.012817,147.949677 
	C1170.830811,147.992065 1174.854492,152.324753 1175.109009,160.116653 
	C1175.277588,165.276566 1175.131104,170.446671 1175.130493,175.612213 
	C1175.123169,229.936752 1175.148682,284.261353 1175.035645,338.585693 
	C1175.028442,342.055542 1176.101807,344.445618 1178.518433,346.857574 
	C1238.671143,406.893280 1298.758789,466.994141 1358.836670,527.104797 
	C1360.588501,528.857544 1362.124390,530.828247 1363.734375,532.720032 
	C1366.789917,536.309814 1366.964722,540.313477 1364.962158,544.349426 
	C1362.921753,548.461609 1359.265015,550.279724 1354.777710,550.303894 
	C1344.482666,550.359375 1334.187134,550.316711 1323.891724,550.318176 
	C1314.226685,550.319580 1304.561646,550.310364 1294.896606,550.336670 
	C1288.290649,550.354675 1288.283081,550.378296 1288.282959,556.812439 
	C1288.281494,622.301880 1288.278564,687.791260 1288.285278,753.280701 
	C1288.288452,784.439514 1288.122192,815.600281 1288.431641,846.756165 
	C1288.535400,857.206238 1283.995483,861.557861 1274.390137,861.466614 
	C1237.428833,861.115234 1200.463745,861.164368 1163.000000,861.062988 
M863.596069,265.095978 
	C777.971313,351.207336 692.346497,437.318695 606.721680,523.430054 
	C606.974609,523.880493 607.227539,524.330994 607.480469,524.781433 
	C609.410828,524.781433 611.341187,524.785400 613.271545,524.780701 
	C625.892395,524.750061 638.515137,524.570068 651.133301,524.738770 
	C659.189514,524.846497 663.069031,529.111145 663.117676,537.270142 
	C663.435547,590.575256 663.809204,643.880310 664.017456,697.185913 
	C664.189331,741.177673 664.158386,785.170227 664.216736,829.162415 
	C664.219299,831.088501 664.217041,833.014648 664.217041,835.492981 
	C865.102844,836.717651 1065.249146,837.937805 1265.890503,839.161011 
	C1265.890503,836.745056 1265.890503,835.123535 1265.890503,833.502014 
	C1265.889648,742.018066 1265.889404,650.534180 1265.886230,559.050232 
	C1265.885986,553.218018 1265.800659,547.385193 1265.860962,541.553711 
	C1265.960449,531.935059 1269.832520,528.053528 1279.534302,527.938354 
	C1287.031738,527.849365 1294.531372,527.939026 1302.030029,527.942932 
	C1309.945190,527.947083 1317.860229,527.943787 1326.833496,527.943787 
	C1325.134399,526.025879 1324.253784,524.919922 1323.260498,523.926758 
	C1268.372192,469.047852 1213.497314,414.155457 1158.531006,359.354736 
	C1154.493652,355.329498 1152.647461,351.013184 1152.660645,345.254547 
	C1152.789917,288.764771 1152.673096,232.274460 1152.813477,175.784744 
	C1152.824585,171.338654 1151.590332,170.158310 1147.201660,170.211899 
	C1128.041138,170.445923 1108.875488,170.401031 1089.713501,170.237549 
	C1085.809570,170.204254 1084.146606,170.952652 1084.184570,175.386520 
	C1084.395264,200.047073 1084.210449,224.710739 1084.342163,249.372391 
	C1084.372070,254.954803 1082.479980,259.129181 1077.338989,261.358887 
	C1072.272217,263.556396 1068.000610,261.566467 1064.275635,258.062653 
	C1053.391846,247.824997 1042.488525,237.607498 1031.681396,227.289215 
	C1013.273376,209.713730 994.957581,192.041656 976.544312,174.471695 
	C972.727539,170.829697 968.654358,167.456329 965.762695,164.899384 
	C931.696716,198.304199 897.895569,231.449265 863.596069,265.095978 
z"/>
<path fill="#010202" opacity="1.000000" stroke="none" 
	d="
M920.989990,910.394165 
	C917.295471,910.253906 913.991333,910.253906 910.365967,910.253906 
	C910.365967,912.711182 910.365967,915.102356 910.365967,917.782593 
	C913.249878,918.009521 916.045532,918.887146 916.859375,914.589539 
	C917.019043,913.745972 919.118469,913.269653 920.862671,912.334900 
	C920.862671,918.344727 920.862671,923.302368 920.862671,929.538452 
	C919.172729,928.652832 917.822693,928.134338 916.695190,927.311096 
	C914.917847,926.013245 913.290039,924.510498 911.598938,923.094482 
	C911.184387,923.467224 910.769775,923.839966 910.355225,924.212646 
	C910.355225,927.276428 910.355225,930.340149 910.355225,933.640137 
	C917.553833,934.518555 924.151611,934.645325 928.381775,927.336304 
	C928.835632,926.552246 930.859558,926.286987 932.027283,926.495789 
	C932.501160,926.580566 933.123108,928.727173 932.834045,929.679749 
	C931.684082,933.470703 930.201477,937.160828 928.842712,940.886475 
	C918.079895,940.886475 907.600769,940.886475 896.665527,940.886475 
	C896.520020,939.231384 896.381226,937.652344 896.208008,935.682129 
	C900.645752,935.380737 901.205994,932.616516 900.986145,928.926086 
	C900.699402,924.111145 900.925293,919.266357 900.912476,914.434387 
	C900.904480,911.402283 901.687134,907.796692 896.578247,908.885803 
	C896.578247,906.671265 896.578247,905.072876 896.578247,903.240417 
	C906.956177,903.240417 917.073608,903.240417 927.733887,903.240417 
	C929.031982,906.612366 930.437317,910.262756 931.887756,914.030212 
	C929.300537,916.132751 927.369812,916.371094 925.379639,913.381714 
	C924.532471,912.109131 922.742126,911.464417 920.989990,910.394165 
z"/>
<path fill="#010505" opacity="1.000000" stroke="none" 
	d="
M605.500122,903.380493 
	C613.848694,902.719055 620.907837,904.527527 625.562622,911.474976 
	C629.691040,917.636719 629.702820,924.375366 626.536560,930.917969 
	C622.523315,939.210754 612.017761,942.845825 601.426880,939.961487 
	C593.379639,937.769897 587.776550,930.154602 587.991699,921.701111 
	C588.239197,911.974792 594.417297,905.379211 605.500122,903.380493 
M611.685120,909.329163 
	C607.907104,908.601746 604.415161,908.782471 601.649353,912.012756 
	C597.404968,916.969849 597.126831,926.454651 601.162415,931.618774 
	C604.813049,936.290283 611.750793,936.389526 615.510498,931.824036 
	C620.675537,925.552002 619.124390,914.535278 611.685120,909.329163 
z"/>
<path fill="#020606" opacity="1.000000" stroke="none" 
	d="
M1304.746094,919.073364 
	C1304.083740,919.462219 1303.568604,919.840210 1303.608398,920.146179 
	C1304.882080,929.955566 1300.731201,934.398132 1290.886841,933.759094 
	C1289.712158,933.682861 1288.521484,933.854980 1287.338135,933.911987 
	C1287.275879,934.429321 1287.213745,934.946594 1287.151489,935.463928 
	C1289.712280,935.927002 1292.273926,936.385437 1294.833618,936.854248 
	C1298.244629,937.478943 1301.837402,937.632141 1305.023315,938.848816 
	C1310.352051,940.883545 1310.744019,946.405640 1306.117920,949.741577 
	C1300.906006,953.499817 1286.638428,953.984924 1281.093750,950.592224 
	C1276.776855,947.950867 1277.167725,945.501221 1282.575806,941.303162 
	C1277.747314,936.607422 1277.794189,935.977295 1283.628418,930.600281 
	C1280.289551,927.007812 1278.499390,922.996460 1281.949219,918.437439 
	C1285.303345,914.005127 1292.130371,913.154968 1298.865112,915.784180 
	C1302.136597,914.499146 1304.677002,913.371582 1307.328247,912.653442 
	C1307.603516,912.578796 1309.365479,915.413391 1308.990601,916.062683 
	C1308.242554,917.358337 1306.489624,918.073853 1304.746094,919.073364 
M1291.822144,947.003235 
	C1294.999268,946.737305 1298.176514,946.471436 1301.353638,946.205505 
	C1296.230347,941.272888 1288.511841,941.347839 1285.896729,945.473022 
	C1287.682617,946.004944 1289.315674,946.491272 1291.822144,947.003235 
M1292.418457,920.003357 
	C1290.998657,921.450928 1289.216431,922.722107 1288.375244,924.451172 
	C1288.115356,924.985352 1290.380493,927.695007 1291.558228,927.743591 
	C1293.061768,927.805603 1295.989380,926.036377 1295.912231,925.310181 
	C1295.717773,923.476990 1294.184204,921.785889 1292.418457,920.003357 
z"/>
<path fill="#020505" opacity="1.000000" stroke="none" 
	d="
M1062.245361,911.366333 
	C1067.494629,904.429932 1074.182495,902.345520 1082.275391,903.527527 
	C1084.647949,903.874023 1087.195679,902.945007 1089.595947,903.209778 
	C1090.813721,903.344177 1092.496094,904.614441 1092.902710,905.752075 
	C1094.122314,909.164734 1094.817261,912.764954 1095.796631,916.604492 
	C1094.427979,917.107849 1093.084961,917.601746 1091.560425,918.162415 
	C1086.086182,910.548157 1080.088867,903.395264 1071.356445,913.825012 
	C1067.132812,918.869690 1069.306030,928.776184 1074.354614,932.900269 
	C1079.386475,937.010864 1085.634155,935.461670 1093.376953,927.954590 
	C1094.471069,928.606689 1095.668091,929.320129 1097.861450,930.627380 
	C1094.267334,933.539551 1091.435059,936.610168 1087.959229,938.493530 
	C1080.085083,942.760315 1070.177979,941.082947 1064.466064,935.135437 
	C1058.456909,928.878418 1057.555420,920.145935 1062.245361,911.366333 
z"/>
<path fill="#010202" opacity="1.000000" stroke="none" 
	d="
M676.566406,939.713135 
	C670.257263,935.879700 668.903015,930.234985 670.159058,923.947571 
	C671.175354,918.859558 674.375793,915.123047 679.801208,914.499512 
	C682.647705,914.172485 685.622498,914.961121 688.708374,915.262390 
	C688.708374,913.571289 688.708374,911.624939 688.708374,909.475708 
	C687.473572,909.163879 686.265625,908.858887 685.118164,908.569092 
	C685.118164,906.671814 685.118164,905.055847 685.118164,903.436157 
	C689.000122,902.606445 692.678772,901.820190 697.158630,900.862671 
	C697.158630,907.554810 697.158325,913.950134 697.158813,920.345520 
	C697.159058,923.837219 696.914917,927.353882 697.264709,930.810242 
	C697.441589,932.558105 698.693909,934.197205 699.459961,935.885437 
	C699.965515,935.740112 700.471008,935.594849 700.976562,935.449524 
	C700.976562,937.067688 700.976562,938.685852 700.976562,941.801208 
	C696.947021,940.817078 693.190063,939.819580 689.389587,939.031921 
	C688.529968,938.853760 687.526123,939.548096 686.576721,939.594238 
	C683.357971,939.750549 680.133850,939.796326 676.566406,939.713135 
M679.020508,924.932373 
	C679.728088,927.681091 680.001953,930.679504 681.366882,933.049683 
	C681.878845,933.938721 685.923889,934.159241 686.610046,933.295593 
	C688.010132,931.533630 688.937317,928.761536 688.725464,926.532227 
	C688.514771,924.314697 687.178223,921.220215 685.425049,920.355408 
	C682.529114,918.926575 680.127258,920.953003 679.020508,924.932373 
z"/>
<path fill="#010202" opacity="1.000000" stroke="none" 
	d="
M661.158630,914.010803 
	C661.158691,919.174072 661.002502,923.846497 661.220276,928.501343 
	C661.341553,931.093872 659.551575,934.817322 664.535889,935.433655 
	C664.999146,935.491028 665.076355,938.669189 665.452454,941.204895 
	C660.973816,939.932983 656.609009,943.255005 653.083740,938.999634 
	C652.834412,938.698853 651.292175,939.432922 650.366882,939.734192 
	C644.319153,941.703247 639.752197,940.574951 636.490112,936.289673 
	C633.026794,931.740051 632.841431,924.140198 636.077026,919.351379 
	C639.062683,914.932495 643.881714,913.362122 649.720337,914.910034 
	C650.657837,915.158691 651.590515,915.425049 652.811340,915.762085 
	C652.446411,912.764465 654.860046,908.855835 649.145752,908.709961 
	C649.145752,906.992371 649.145752,905.375977 649.145752,903.409302 
	C650.913208,903.066223 652.815430,902.732361 654.700867,902.321045 
	C656.625854,901.901123 658.534241,901.405273 661.158630,900.771423 
	C661.158630,905.302002 661.158630,909.407288 661.158630,914.010803 
M643.103638,929.918823 
	C645.365234,934.061218 650.115784,935.664124 651.969971,932.582581 
	C653.174133,930.581360 653.303406,927.388550 652.717285,925.026550 
	C652.244812,923.122559 650.023376,920.393494 648.498657,920.341187 
	C646.751343,920.281250 644.533508,922.494812 643.259888,924.255676 
	C642.463074,925.357422 643.030945,927.446106 643.103638,929.918823 
z"/>
<path fill="#010303" opacity="1.000000" stroke="none" 
	d="
M794.175171,908.928223 
	C793.407349,907.160339 793.084473,905.454041 792.732849,903.595764 
	C797.001221,902.671997 800.805115,901.848816 805.288086,900.878662 
	C805.288086,906.088989 805.288086,910.969177 805.288086,916.583313 
	C812.231873,913.578003 818.250977,912.723694 822.390381,919.656067 
	C825.457397,924.792175 824.679504,932.654419 820.796509,936.955994 
	C816.985291,941.178040 812.388855,941.682678 806.009644,939.179382 
	C802.569885,940.106079 800.120300,940.765991 796.992737,941.608521 
	C796.992737,931.315857 797.082642,922.026428 796.887451,912.742981 
	C796.860779,911.476562 795.411011,910.240051 794.175171,908.928223 
M811.171143,934.928406 
	C814.955933,932.420593 816.439758,927.261414 814.469055,923.461792 
	C813.041626,920.709595 807.977844,919.724609 806.643311,922.443481 
	C805.333252,925.112427 805.360657,928.745117 805.795105,931.814087 
	C805.972534,933.067566 808.764343,933.950989 811.171143,934.928406 
z"/>
<path fill="#010202" opacity="1.000000" stroke="none" 
	d="
M1248.059570,941.006042 
	C1245.785278,941.006042 1243.990479,941.006042 1242.028076,941.006042 
	C1241.955200,938.083984 1241.010864,936.156433 1244.513062,934.224304 
	C1246.274902,933.252197 1245.695679,927.596436 1245.647705,924.065857 
	C1245.634155,923.071899 1243.754028,922.103210 1242.047607,920.469666 
	C1242.047607,919.966614 1242.047607,918.359131 1242.047607,916.129944 
	C1245.981445,917.085388 1250.026733,911.316650 1253.687012,915.995728 
	C1257.842651,915.539673 1261.868042,914.598755 1265.831177,914.812317 
	C1269.344971,915.001587 1271.296753,917.665405 1271.277832,921.403442 
	C1271.265137,923.900574 1271.197021,926.404114 1271.344482,928.893494 
	C1271.496216,931.455139 1270.141235,934.765503 1274.651367,935.429260 
	C1275.243164,935.516357 1275.402832,938.538208 1275.861938,940.660095 
	C1270.310791,940.660095 1265.420166,940.660095 1258.894775,940.660095 
	C1260.319702,938.162598 1262.054810,936.380798 1262.312256,934.406311 
	C1262.839600,930.362305 1262.687744,926.208374 1262.454834,922.120239 
	C1262.432007,921.721313 1259.681641,920.876953 1258.579346,921.281128 
	C1256.919434,921.889709 1254.280884,923.529114 1254.365845,924.535461 
	C1254.678345,928.234863 1251.860352,932.691162 1256.658203,935.682129 
	C1257.485840,936.198120 1257.029541,938.774170 1257.217529,941.006042 
	C1254.109375,941.006042 1251.324219,941.006042 1248.059570,941.006042 
z"/>
<path fill="#010202" opacity="1.000000" stroke="none" 
	d="
M1002.900574,920.791016 
	C1002.829041,919.051086 1002.829041,917.750000 1002.829041,915.784790 
	C1007.049988,917.300842 1011.145996,911.070251 1015.105713,916.697327 
	C1017.444946,915.952942 1020.061096,914.779480 1022.797058,914.320923 
	C1028.421387,913.378235 1032.112793,916.597839 1032.284546,922.274963 
	C1032.369995,925.104309 1032.002563,927.987122 1032.440796,930.750427 
	C1032.683472,932.280273 1034.293091,933.549194 1035.054199,935.053284 
	C1035.846313,936.618591 1036.358887,938.325256 1037.243042,940.616211 
	C1031.396240,940.616211 1026.509888,940.616211 1020.149353,940.616211 
	C1021.229553,938.397766 1022.666809,936.649048 1022.881897,934.760986 
	C1023.370117,930.475464 1023.323242,926.119690 1023.206116,921.800232 
	C1023.199829,921.567627 1020.364624,920.900818 1019.179688,921.338562 
	C1017.655579,921.901794 1015.223267,923.564758 1015.352844,924.427979 
	C1015.907288,928.119812 1012.553711,932.654236 1017.613464,935.611023 
	C1018.439209,936.093689 1018.026978,938.694885 1018.221863,940.670959 
	C1013.020569,940.670959 1008.128723,940.670959 1003.032837,940.670959 
	C1002.971252,938.116699 1001.953796,936.187195 1005.482178,934.239990 
	C1007.250488,933.264221 1006.743652,927.612793 1006.613098,924.100159 
	C1006.575928,923.099731 1004.249023,922.184326 1002.900574,920.791016 
z"/>
<path fill="#010202" opacity="1.000000" stroke="none" 
	d="
M1213.314697,926.230835 
	C1214.111816,929.743713 1210.996582,934.323242 1216.897217,935.544739 
	C1217.433838,935.655823 1217.349854,938.764648 1217.585571,940.745483 
	C1212.087524,940.745483 1207.178955,940.745483 1200.614014,940.745483 
	C1202.212524,938.102051 1203.978149,936.426575 1204.195801,934.569641 
	C1204.686279,930.384155 1204.496704,926.104065 1204.264771,921.880005 
	C1204.248169,921.579041 1201.456421,920.910278 1200.271729,921.322876 
	C1198.729614,921.859741 1196.233032,923.506409 1196.361694,924.329224 
	C1196.938965,928.020203 1193.504272,932.543152 1198.558716,935.524597 
	C1199.405029,936.023865 1199.028320,938.596924 1199.264526,940.621216 
	C1194.069946,940.621216 1189.199463,940.621216 1184.022949,940.621216 
	C1183.940186,939.004822 1183.858398,937.405518 1183.771851,935.714172 
	C1190.348389,934.348999 1187.349243,929.260254 1187.651367,925.687256 
	C1187.781738,924.145691 1186.035767,922.445435 1185.142334,920.817261 
	C1184.764648,920.980652 1184.386963,921.143982 1184.009277,921.307312 
	C1184.009277,919.686218 1184.009277,918.065063 1184.009277,915.837524 
	C1188.052856,917.303528 1192.153442,911.070190 1196.127441,916.730713 
	C1208.370483,911.095703 1214.777344,915.296631 1213.314697,926.230835 
z"/>
<path fill="#010303" opacity="1.000000" stroke="none" 
	d="
M732.805847,940.366577 
	C727.203369,939.261292 723.535767,936.464722 722.486755,931.093750 
	C721.823792,927.699036 723.224976,924.941223 726.751282,924.338074 
	C730.334412,923.725220 731.918213,926.156677 731.963257,929.425964 
	C732.014160,933.121948 733.576721,935.068848 737.363098,934.976074 
	C741.232666,934.881287 742.583252,932.252441 742.714233,929.021484 
	C742.936584,923.534485 743.041382,918.016174 742.661926,912.548035 
	C742.551819,910.961365 740.622253,909.500916 739.526794,907.982666 
	C739.089111,908.193176 738.651428,908.403748 738.213745,908.614258 
	C738.213745,906.989746 738.213745,905.365173 738.213745,903.362427 
	C744.022522,903.362427 749.892029,903.362427 756.010437,903.362427 
	C756.010437,905.011902 756.010437,906.631226 756.010437,908.690491 
	C752.220215,908.468079 751.727600,910.824524 751.953125,914.035400 
	C752.197449,917.515442 752.021057,921.026001 752.005615,924.523193 
	C751.950745,936.933777 745.638123,942.278931 732.805847,940.366577 
z"/>
<path fill="#020505" opacity="1.000000" stroke="none" 
	d="
M786.159668,937.207886 
	C782.301941,938.593384 778.772583,940.577881 775.163818,940.734802 
	C766.490662,941.111938 760.711914,935.768188 760.294983,928.000732 
	C759.886230,920.386047 765.350708,914.932983 774.175537,914.149414 
	C780.359131,913.600220 786.515930,916.590088 789.031921,921.363770 
	C791.554749,926.150391 790.586182,932.011414 786.159668,937.207886 
M769.336975,928.274719 
	C769.478027,928.917542 769.615540,929.561157 769.760864,930.203003 
	C770.665710,934.197205 773.261292,935.706299 777.094910,934.771057 
	C780.422180,933.959229 782.002747,929.494507 780.893005,924.646790 
	C780.107178,921.214355 777.923828,919.539978 774.416321,920.091492 
	C770.228088,920.749939 769.692871,924.119385 769.336975,928.274719 
z"/>
<path fill="#010505" opacity="1.000000" stroke="none" 
	d="
M1156.999023,924.994751 
	C1155.552734,923.896362 1152.898071,922.760254 1152.930908,921.708008 
	C1152.986450,919.929626 1154.324707,917.518066 1155.860596,916.583008 
	C1160.794312,913.579285 1166.390503,912.936829 1171.511475,915.735291 
	C1173.570190,916.860352 1175.095581,919.827148 1175.829590,922.266785 
	C1176.564087,924.708191 1175.680664,927.593689 1176.121582,930.179626 
	C1176.466553,932.202698 1177.751831,934.065491 1179.265137,935.788208 
	C1180.215942,940.517090 1177.363281,942.583313 1172.598267,939.950867 
	C1169.242676,938.097168 1166.907349,938.530457 1163.664307,939.807190 
	C1161.280396,940.745605 1157.876465,940.785034 1155.585083,939.757507 
	C1153.571655,938.854675 1151.629272,936.088928 1151.159546,933.832703 
	C1150.380493,930.091675 1153.206177,927.825500 1157.106689,926.112183 
	C1159.733276,925.552917 1161.729980,925.376038 1163.584106,924.765686 
	C1165.105835,924.264709 1166.580933,923.387329 1167.772217,922.332825 
	C1167.987305,922.142456 1166.613159,919.314758 1166.168457,919.367065 
	C1164.263672,919.591431 1162.250244,920.143127 1160.628052,921.144958 
	C1159.178589,922.040039 1158.190674,923.682251 1156.999023,924.994751 
M1164.759033,929.152649 
	C1163.964966,929.391418 1162.963623,929.409302 1162.422241,929.917419 
	C1161.447266,930.832153 1160.747803,932.040466 1159.933228,933.126160 
	C1160.957886,933.751038 1162.146484,935.057922 1162.973145,934.859131 
	C1164.694824,934.445129 1166.224976,933.234497 1167.833740,932.351196 
	C1167.080322,931.261536 1166.326904,930.171875 1164.759033,929.152649 
z"/>
<path fill="#020505" opacity="1.000000" stroke="none" 
	d="
M957.360229,934.514771 
	C956.626648,936.055603 956.347168,937.575134 955.436462,938.383118 
	C954.139587,939.533630 952.384460,940.816040 950.815552,940.828308 
	C949.259216,940.840637 947.037048,939.743530 946.252441,938.442261 
	C944.032593,934.760559 942.613342,930.601624 940.461487,926.871399 
	C938.978943,924.301208 936.574280,922.270142 935.026611,919.727417 
	C934.191284,918.354980 934.290955,916.413452 933.889893,914.316101 
	C939.674072,914.316101 944.895874,914.316101 951.393921,914.316101 
	C950.329712,917.049011 949.484924,919.218384 948.640198,921.387817 
	C948.154602,921.317566 947.669067,921.247314 947.183533,921.177063 
	C948.651794,924.372437 950.120056,927.567810 952.080078,931.833252 
	C954.120300,927.580994 955.641907,924.409668 957.452637,920.635803 
	C952.678467,920.273376 952.346436,917.761169 953.601196,914.253784 
	C957.912476,914.253784 962.323242,914.253784 966.834595,914.253784 
	C967.661072,917.193237 966.760498,918.698181 964.492798,921.088135 
	C961.215393,924.542358 959.763367,929.728516 957.360229,934.514771 
z"/>
<path fill="#020505" opacity="1.000000" stroke="none" 
	d="
M831.529358,926.474976 
	C831.107056,923.613037 829.812195,919.687683 831.005981,918.663818 
	C833.659058,916.388306 837.463135,915.206116 840.982239,914.273132 
	C843.488281,913.608765 846.620544,913.310242 848.870178,914.266907 
	C850.896667,915.128601 852.102661,917.919678 853.633423,919.813782 
	C847.939514,925.471130 842.760803,917.282776 837.002197,921.271667 
	C840.746033,922.661865 843.886780,923.822754 847.023560,924.993958 
	C853.357727,927.358887 855.260132,929.663635 854.426514,933.947815 
	C853.615356,938.117371 848.527466,941.214905 843.036865,940.875793 
	C839.969543,940.686279 836.919373,938.435303 833.762939,940.877136 
	C833.524231,941.061768 831.811768,939.939514 831.347595,939.109802 
	C830.388855,937.395813 829.810242,935.469238 829.004761,933.453674 
	C835.081848,928.122009 840.779907,938.965759 847.123169,933.546753 
	C841.828796,931.192993 836.807373,928.960510 831.529358,926.474976 
z"/>
<path fill="#020506" opacity="1.000000" stroke="none" 
	d="
M1138.296265,933.781006 
	C1140.332031,932.974121 1141.979614,932.241516 1143.893433,931.390564 
	C1144.894775,932.301147 1145.965210,933.274719 1147.035034,934.247498 
	C1140.952515,941.006714 1132.588501,942.737854 1125.934692,938.766052 
	C1120.210693,935.349365 1117.810181,928.943298 1119.998047,922.923035 
	C1122.065308,917.234131 1128.798340,913.411438 1135.301270,914.234375 
	C1142.709351,915.171753 1146.324707,919.266357 1146.871338,927.797607 
	C1140.981812,927.797607 1135.101685,927.797607 1129.172729,927.797607 
	C1129.768921,933.246155 1131.064209,934.076050 1138.296265,933.781006 
M1131.934082,924.012268 
	C1133.981689,924.012268 1136.029175,924.012268 1138.076782,924.012268 
	C1138.285278,923.499329 1138.493774,922.986389 1138.702271,922.473450 
	C1137.363037,921.335083 1136.140991,919.511292 1134.650635,919.256104 
	C1133.233765,919.013550 1131.487915,920.330627 1130.033203,921.205383 
	C1129.880127,921.297302 1130.714233,923.030884 1131.934082,924.012268 
z"/>
<path fill="#020506" opacity="1.000000" stroke="none" 
	d="
M986.904907,933.972168 
	C989.799805,933.228088 992.292419,932.490112 995.203857,931.628174 
	C995.970703,932.349548 997.025391,933.341553 998.081421,934.334900 
	C991.626038,941.103455 983.482056,942.725342 976.861633,938.711365 
	C971.142883,935.244019 968.786987,928.842896 971.019348,922.836609 
	C973.186584,917.005493 980.210266,913.238647 986.877869,914.331421 
	C994.025757,915.502808 997.434265,919.567932 997.846252,927.864990 
	C991.948242,927.864990 986.058228,927.864990 979.949280,927.864990 
	C980.112854,932.662109 982.821655,933.866272 986.904907,933.972168 
M980.394653,922.113403 
	C983.153687,922.953430 985.912659,923.793457 989.408875,924.857910 
	C987.483704,918.094482 985.040588,917.506348 980.394653,922.113403 
z"/>
<path fill="#000001" opacity="1.000000" stroke="none" 
	d="
M1111.818604,901.665405 
	C1112.042236,911.392090 1112.046387,920.716370 1112.120972,930.040161 
	C1112.138428,932.217407 1111.343140,934.759460 1115.028320,935.322266 
	C1115.755005,935.433289 1116.020752,938.563843 1116.617432,940.731812 
	C1110.753052,940.731812 1105.654175,940.731812 1100.083984,940.731812 
	C1100.369995,938.468933 1097.924194,935.620117 1102.437256,934.665161 
	C1103.114014,934.522034 1103.784058,932.538330 1103.803833,931.394714 
	C1103.928101,924.243713 1103.866699,917.089539 1102.829346,910.484741 
	C1101.576538,908.417480 1100.323608,906.350220 1098.624512,903.546753 
	C1103.918091,902.616760 1107.771484,901.939819 1111.818604,901.665405 
z"/>
<path fill="#03090A" opacity="1.000000" stroke="none" 
	d="
M1222.598633,940.905701 
	C1221.226929,938.406433 1219.931030,936.404541 1223.716919,934.567688 
	C1225.138672,933.877930 1224.967773,929.723877 1225.351440,927.123901 
	C1225.793213,924.130188 1225.460083,921.486328 1221.562622,921.572144 
	C1221.562622,919.601807 1221.562622,917.993347 1221.562622,916.439331 
	C1225.656616,915.606384 1229.486572,914.827209 1233.873535,913.934631 
	C1233.873535,919.767639 1233.906860,925.213562 1233.859497,930.658752 
	C1233.836060,933.352722 1233.703247,936.014893 1237.849121,934.962708 
	C1237.849121,937.156860 1237.849121,938.777466 1237.849121,940.992981 
	C1232.889771,940.992981 1227.961426,940.992981 1222.598633,940.905701 
z"/>
<path fill="#030B0B" opacity="1.000000" stroke="none" 
	d="
M1231.876465,902.925049 
	C1234.614746,905.132263 1235.200439,907.725647 1233.001953,909.935425 
	C1231.891113,911.051880 1228.920410,911.891479 1227.947021,911.208496 
	C1226.421631,910.138062 1224.844116,907.488159 1225.137695,905.835876 
	C1225.688599,902.736816 1228.227661,901.327148 1231.876465,902.925049 
z"/>
<path fill="#030B0B" opacity="1.000000" stroke="none" 
	d="
M868.524231,932.281433 
	C868.895386,934.745178 869.478149,937.157104 868.824890,939.167236 
	C868.538696,940.047668 864.926331,940.993103 864.226318,940.359619 
	C862.660217,938.942444 860.794189,936.284119 861.174866,934.616272 
	C861.962830,931.164185 864.898315,930.259766 868.524231,932.281433 
z"/>
<path fill="#030B0B" opacity="1.000000" stroke="none" 
	d="
M1321.524292,932.281494 
	C1321.895386,934.745178 1322.478149,937.157043 1321.824951,939.167236 
	C1321.538696,940.047607 1317.926392,940.993042 1317.226196,940.359558 
	C1315.660156,938.942566 1313.794312,936.284119 1314.175049,934.616272 
	C1314.963135,931.164246 1317.898438,930.259766 1321.524292,932.281494 
z"/>
<path fill="#3F9CA0" opacity="1.000000" stroke="none" 
	d="
M1156.992920,925.223511 
	C1158.190674,923.682251 1159.178589,922.040039 1160.628052,921.144958 
	C1162.250244,920.143127 1164.263672,919.591431 1166.168457,919.367065 
	C1166.613159,919.314758 1167.987305,922.142456 1167.772217,922.332825 
	C1166.580933,923.387329 1165.105835,924.264709 1163.584106,924.765686 
	C1161.729980,925.376038 1159.733276,925.552917 1157.392090,925.913696 
	C1156.985840,925.910095 1156.986938,925.452332 1156.992920,925.223511 
z"/>
<path fill="#FDD711" opacity="1.000000" stroke="none" 
	d="
M863.845276,264.845154 
	C897.895569,231.449265 931.696716,198.304199 965.762695,164.899384 
	C968.654358,167.456329 972.727539,170.829697 976.544312,174.471695 
	C994.957581,192.041656 1013.273376,209.713730 1031.681396,227.289215 
	C1042.488525,237.607498 1053.391846,247.824997 1064.275635,258.062653 
	C1068.000610,261.566467 1072.272217,263.556396 1077.338989,261.358887 
	C1082.479980,259.129181 1084.372070,254.954803 1084.342163,249.372391 
	C1084.210449,224.710739 1084.395264,200.047073 1084.184570,175.386520 
	C1084.146606,170.952652 1085.809570,170.204254 1089.713501,170.237549 
	C1108.875488,170.401031 1128.041138,170.445923 1147.201660,170.211899 
	C1151.590332,170.158310 1152.824585,171.338654 1152.813477,175.784744 
	C1152.673096,232.274460 1152.789917,288.764771 1152.660645,345.254547 
	C1152.647461,351.013184 1154.493652,355.329498 1158.531006,359.354736 
	C1213.497314,414.155457 1268.372192,469.047852 1323.260498,523.926758 
	C1324.253784,524.919922 1325.134399,526.025879 1326.833496,527.943787 
	C1317.860229,527.943787 1309.945190,527.947083 1302.030029,527.942932 
	C1294.531372,527.939026 1287.031738,527.849365 1279.534302,527.938354 
	C1269.832520,528.053528 1265.960449,531.935059 1265.860962,541.553711 
	C1265.800659,547.385193 1265.885986,553.218018 1265.886230,559.050232 
	C1265.889404,650.534180 1265.889648,742.018066 1265.890503,833.502014 
	C1265.890503,835.123535 1265.890503,836.745056 1265.890503,839.161011 
	C1065.249146,837.937805 865.102844,836.717651 664.217041,835.492981 
	C664.217041,833.014648 664.219299,831.088501 664.216736,829.162415 
	C664.158386,785.170227 664.189331,741.177673 664.017456,697.185913 
	C663.809204,643.880310 663.435547,590.575256 663.117676,537.270142 
	C663.069031,529.111145 659.189514,524.846497 651.133301,524.738770 
	C638.515137,524.570068 625.892395,524.750061 613.271545,524.780701 
	C611.341187,524.785400 609.410828,524.781433 607.480469,524.781433 
	C607.227539,524.330994 606.974609,523.880493 606.721680,523.430054 
	C692.346497,437.318695 777.971313,351.207336 863.845276,264.845154 
M743.903076,606.963928 
	C744.139709,611.783630 744.574036,616.603027 744.581543,621.423096 
	C744.638733,658.249878 744.619507,695.076782 744.596863,731.903687 
	C744.595459,734.229004 744.518616,736.574158 744.215881,738.875793 
	C743.164795,746.868958 740.330688,749.499268 732.168579,749.885620 
	C728.058167,750.080078 723.930969,749.919495 719.935791,749.919495 
	C719.935791,759.969360 719.935791,769.356934 719.935791,778.782959 
	C753.737122,778.782959 787.166382,778.782959 820.795044,778.782959 
	C820.795044,769.173889 820.795044,759.780640 820.795044,749.942017 
	C815.930542,749.942017 811.297729,750.060242 806.673157,749.914917 
	C799.381165,749.685730 795.578918,746.650635 795.403564,739.362244 
	C795.012024,723.085632 795.281250,706.793091 795.281250,690.003296 
	C800.493103,690.003296 805.444275,689.973755 810.395081,690.009094 
	C823.102722,690.099731 828.451233,695.430481 828.697998,708.305481 
	C828.783020,712.745300 828.711548,717.188110 828.711548,721.659302 
	C837.821411,721.659302 846.377808,721.659302 854.912231,721.659302 
	C854.912231,690.710327 854.912231,660.100708 854.912231,629.279419 
	C846.154419,629.279419 837.593750,629.279419 829.088928,629.279419 
	C828.724243,635.347778 828.442932,641.140808 828.010742,646.922668 
	C827.525330,653.417297 823.667297,657.737244 817.660400,658.784424 
	C810.416626,660.047058 802.932251,659.929993 795.446045,660.417053 
	C795.446045,641.050781 795.446045,622.663086 795.446045,604.026550 
	C807.414612,604.026550 819.064575,604.226929 830.705444,603.985107 
	C855.509460,603.469727 872.888489,614.858032 883.992981,636.609131 
	C885.624084,639.803955 887.273132,642.989563 888.958618,646.266541 
	C897.976929,643.086426 906.541016,640.066528 915.472534,636.916992 
	C907.493225,614.328918 899.669617,592.181580 891.964478,570.369568 
	C834.214417,570.369568 776.986755,570.369568 719.801758,570.369568 
	C719.801758,580.014893 719.801758,589.290588 719.801758,599.093567 
	C724.494019,599.093567 728.966248,598.957642 733.426575,599.130493 
	C738.254272,599.317505 742.184937,601.093323 743.903076,606.963928 
M1138.775879,680.741760 
	C1135.478638,675.946655 1131.884033,671.324097 1128.971069,666.305908 
	C1126.276245,661.663574 1128.187378,658.571350 1133.451782,658.096436 
	C1135.212646,657.937561 1136.986572,657.924683 1138.717651,657.846741 
	C1138.717651,648.040283 1138.717651,638.642395 1138.717651,629.322021 
	C1108.502686,629.322021 1078.604248,629.322021 1048.722656,629.322021 
	C1048.722656,639.026184 1048.722656,648.404297 1048.722656,658.217102 
	C1059.838745,656.602539 1066.991943,662.468811 1073.517944,669.906860 
	C1081.099487,678.547913 1088.929688,686.970703 1096.640747,695.498352 
	C1097.704590,696.674988 1098.704224,697.909912 1099.762329,699.151733 
	C1088.851318,711.633423 1078.167725,723.536926 1067.859375,735.757141 
	C1060.790649,744.136841 1053.709106,751.993225 1041.073730,749.767700 
	C1041.073730,759.824402 1041.073730,769.214050 1041.073730,778.628967 
	C1065.538208,778.628967 1089.744873,778.628967 1113.837646,778.628967 
	C1113.837646,768.976562 1113.837646,759.695923 1113.837646,749.950623 
	C1110.330811,749.950623 1107.030151,750.092590 1103.746094,749.918945 
	C1098.150024,749.623108 1096.449097,746.671326 1099.651245,742.046509 
	C1106.651245,731.936401 1114.010742,722.075073 1121.580811,711.618408 
	C1129.472778,721.965637 1137.199951,731.758728 1144.520386,741.846802 
	C1147.838623,746.419434 1145.854736,749.625854 1139.991577,749.923096 
	C1136.928833,750.078308 1133.851807,749.950378 1130.894287,749.950378 
	C1130.894287,760.061218 1130.894287,769.329529 1130.894287,778.684937 
	C1162.711426,778.684937 1194.267578,778.684937 1225.724365,778.684937 
	C1225.724365,768.960388 1225.724365,759.553528 1225.724365,749.802185 
	C1215.207031,751.262146 1207.851685,746.178528 1201.383911,739.177917 
	C1192.451172,729.509277 1183.528198,719.831665 1174.611572,710.148193 
	C1172.053467,707.370056 1169.531738,704.558289 1166.904419,701.663879 
	C1177.440186,689.489685 1187.675537,677.640808 1197.937500,665.815063 
	C1202.572754,660.473572 1208.373657,657.711731 1215.537109,657.996948 
	C1216.630615,658.040466 1217.735107,657.811279 1218.697021,657.721130 
	C1218.697021,647.969849 1218.697021,638.574890 1218.697021,629.297852 
	C1195.590332,629.297852 1172.834595,629.297852 1150.151978,629.297852 
	C1150.151978,638.996094 1150.151978,648.393616 1150.151978,658.072388 
	C1152.475342,658.072388 1154.463623,657.977966 1156.440308,658.090454 
	C1162.021851,658.407898 1164.094971,661.332397 1161.202393,665.892395 
	C1156.243652,673.709900 1150.620605,681.106079 1144.979248,689.100281 
	C1142.716431,686.068970 1140.948608,683.700500 1138.775879,680.741760 
M871.484314,526.999451 
	C875.271118,526.999451 879.057983,526.999451 882.876282,526.999451 
	C882.876282,519.748169 882.876282,513.024597 882.876282,505.994690 
	C880.766357,505.994690 878.959534,506.003204 877.152832,505.993286 
	C866.584778,505.935242 865.085571,504.468048 865.076965,493.842163 
	C865.052551,463.843109 865.057617,433.844025 865.069336,403.844971 
	C865.072388,396.040863 867.315674,394.360687 874.873657,396.528534 
	C876.460327,396.983582 878.026062,397.634949 879.474304,398.428070 
	C887.128601,402.619568 892.916687,408.719330 897.234924,416.236908 
	C899.700073,420.528320 902.029846,424.897522 904.467224,429.316406 
	C911.168152,426.950073 917.540771,424.699707 924.210510,422.344391 
	C919.231018,408.250641 914.387268,394.504913 909.517395,380.768524 
	C905.142517,368.428528 905.129761,368.433044 891.217651,369.219635 
	C890.872192,374.138885 887.450562,374.102875 883.510559,374.068542 
	C865.679138,373.913177 847.845581,374.000610 830.012817,374.000610 
	C821.043335,374.000610 812.073853,374.000610 803.423828,374.000610 
	C799.806152,365.313568 792.731079,370.672363 787.455688,368.746124 
	C781.090759,386.867371 774.898621,404.496582 768.610046,422.400421 
	C775.451843,424.803040 781.787231,427.027832 788.117065,429.250671 
	C790.916809,424.067169 793.282288,419.298584 796.000244,414.740143 
	C801.006714,406.343445 807.789062,399.889252 817.267395,396.775482 
	C825.433411,394.092834 827.728149,395.736938 827.731628,404.075195 
	C827.743530,433.074310 827.751831,462.073425 827.705994,491.072479 
	C827.701843,493.723114 827.330505,496.375946 827.078003,499.022827 
	C826.612793,503.899780 823.717468,505.980408 819.014099,505.957764 
	C815.905334,505.942810 812.796387,505.954926 809.661621,505.954926 
	C809.661621,513.322021 809.661621,520.049438 809.661621,526.999451 
	C830.173218,526.999451 850.331604,526.999451 871.484314,526.999451 
M1124.624390,499.916565 
	C1115.659058,490.320465 1106.693726,480.724365 1097.550293,470.937592 
	C1104.042114,463.394775 1110.307007,456.292389 1116.367065,449.019135 
	C1121.311035,443.085449 1126.378540,437.610992 1135.324707,439.213226 
	C1135.324707,431.882721 1135.324707,425.127777 1135.324707,418.268677 
	C1118.475220,418.268677 1101.900879,418.268677 1085.275391,418.268677 
	C1085.275391,425.287598 1085.275391,432.033966 1085.275391,439.049011 
	C1087.029785,439.049011 1088.518555,438.959106 1089.993286,439.066071 
	C1094.187744,439.370331 1095.676025,441.466309 1093.495117,444.920532 
	C1089.920654,450.582001 1085.782471,455.887512 1081.533936,461.829987 
	C1077.370972,455.899200 1073.533325,450.864258 1070.188721,445.520599 
	C1067.805908,441.713531 1069.068115,439.591003 1073.400635,439.070312 
	C1074.510620,438.936920 1075.638306,438.952332 1076.871216,438.894043 
	C1076.871216,431.840118 1076.871216,425.102875 1076.871216,418.315369 
	C1054.875000,418.315369 1033.147949,418.315369 1011.450073,418.315369 
	C1011.450073,425.364594 1011.450073,432.093323 1011.450073,437.761353 
	C1015.929810,439.310913 1020.736633,439.614410 1023.435364,442.156219 
	C1032.333130,450.536499 1040.468140,459.726562 1048.979614,468.693695 
	C1041.302124,477.478149 1034.133545,485.580963 1027.079712,493.782410 
	C1021.424622,500.357513 1016.277832,507.654602 1005.975952,505.941071 
	C1005.975952,513.276062 1005.975952,519.886841 1005.975952,526.696228 
	C1023.716553,526.696228 1041.265015,526.696228 1058.742065,526.696228 
	C1058.742065,519.649048 1058.742065,512.910828 1058.742065,505.987213 
	C1056.423706,505.987213 1054.433594,506.050812 1052.448730,505.974884 
	C1047.141235,505.771820 1046.019165,503.889221 1049.032593,499.515045 
	C1053.936157,492.397064 1059.145874,485.490021 1064.631958,477.935394 
	C1070.555054,485.744019 1076.276611,493.072296 1081.733521,500.592712 
	C1083.759033,503.384247 1082.335938,505.430664 1079.159424,505.824005 
	C1076.585571,506.142700 1073.940796,505.888641 1071.281250,505.888641 
	C1071.281250,513.235535 1071.281250,519.969666 1071.281250,526.616089 
	C1094.614746,526.616089 1117.662354,526.616089 1140.660889,526.616089 
	C1140.660889,519.613892 1140.660889,512.998291 1140.660889,505.987274 
	C1134.530884,506.449615 1129.284058,504.847931 1124.624390,499.916565 
M923.244568,660.395264 
	C923.244568,662.834167 923.244568,665.273071 923.244568,668.109741 
	C930.976929,668.109741 938.072998,668.109741 945.611450,668.109741 
	C945.611450,670.145020 945.611389,671.776733 945.611389,673.408447 
	C945.611145,694.238220 945.623535,715.067932 945.593323,735.897705 
	C945.589905,738.222656 945.342224,740.547180 945.212219,742.872070 
	C944.935608,747.822144 942.106201,749.942261 937.370911,749.945557 
	C932.771667,749.948792 928.172424,749.946289 923.628296,749.946289 
	C923.628296,760.037170 923.628296,769.419006 923.628296,778.635437 
	C954.415405,778.635437 984.817688,778.635437 1015.175232,778.635437 
	C1015.175232,768.993042 1015.175232,759.716125 1015.175232,749.991699 
	C1011.323792,749.991699 1007.689331,750.019470 1004.055481,749.986328 
	C994.569397,749.899902 993.041870,748.402527 993.035950,738.931396 
	C993.013550,703.104248 993.023254,667.277039 993.020996,631.449890 
	C993.020874,629.694702 993.020996,627.939453 993.020996,626.246094 
	C985.170593,625.622192 978.195740,625.631470 971.637207,629.562744 
	C968.713684,631.315125 965.185242,632.309509 961.799072,632.994141 
	C949.164062,635.548706 936.474365,637.832581 923.244568,640.323486 
	C923.244568,646.159546 923.244568,652.791016 923.244568,660.395264 
M940.533936,445.998230 
	C943.620667,445.998230 946.707397,445.998230 949.938660,445.998230 
	C949.938660,464.360352 949.921082,482.003357 949.951111,499.646240 
	C949.958557,504.012634 947.881592,506.075714 943.527588,505.989655 
	C940.415955,505.928131 937.302185,505.977753 934.204712,505.977753 
	C934.204712,513.279907 934.204712,520.002686 934.204712,526.998291 
	C945.484314,526.998291 956.453003,526.998291 967.421753,526.998291 
	C978.524841,526.998291 989.627930,526.998291 1000.762024,526.998291 
	C1000.762024,519.732788 1000.762024,513.006348 1000.762024,506.001587 
	C998.992676,506.001587 997.519226,506.005127 996.045837,506.001068 
	C984.755859,505.969940 984.396240,505.619995 984.391052,494.156982 
	C984.380127,470.005707 984.387268,445.854462 984.386963,421.703186 
	C984.386963,419.930328 984.386963,418.157471 984.386963,416.386963 
	C983.392334,416.193787 982.924744,416.087128 982.451965,416.013519 
	C976.740234,415.124268 971.899658,417.988525 966.656006,419.367706 
	C955.990479,422.173035 945.066895,423.997406 934.253174,426.225250 
	C934.253174,432.370880 934.253174,439.094421 934.253174,445.998230 
	C936.265564,445.998230 937.917297,445.998230 940.533936,445.998230 
M953.475830,610.167969 
	C960.051575,614.546143 967.200684,615.614868 974.900024,614.136169 
	C987.985779,611.622986 997.888672,597.733337 995.914062,584.481567 
	C993.781616,570.170837 980.145996,559.427917 966.421509,561.337952 
	C954.412292,563.009277 945.974426,569.467590 942.700684,581.181946 
	C939.465820,592.756836 943.255920,602.445435 953.475830,610.167969 
M985.779175,382.060120 
	C985.185913,380.872650 984.688721,379.624573 983.983643,378.507660 
	C979.671936,371.677002 971.570007,368.105652 963.828064,369.563904 
	C955.180603,371.192780 949.213196,377.040405 947.505737,385.558777 
	C946.059509,392.773407 949.466492,400.606598 956.271484,404.725464 
	C963.431091,409.058929 970.945679,409.159729 977.921631,404.544189 
	C985.688599,399.405396 988.320679,391.931152 985.779175,382.060120 
z"/>
<path fill="#46ABB0" opacity="1.000000" stroke="none" 
	d="
M612.039551,909.508667 
	C619.124390,914.535278 620.675537,925.552002 615.510498,931.824036 
	C611.750793,936.389526 604.813049,936.290283 601.162415,931.618774 
	C597.126831,926.454651 597.404968,916.969849 601.649353,912.012756 
	C604.415161,908.782471 607.907104,908.601746 612.039551,909.508667 
z"/>
<path fill="#42A3A7" opacity="1.000000" stroke="none" 
	d="
M1291.385376,946.990417 
	C1289.315674,946.491272 1287.682617,946.004944 1285.896729,945.473022 
	C1288.511841,941.347839 1296.230347,941.272888 1301.353638,946.205505 
	C1298.176514,946.471436 1294.999268,946.737305 1291.385376,946.990417 
z"/>
<path fill="#43A5A9" opacity="1.000000" stroke="none" 
	d="
M1292.802734,920.020630 
	C1294.184204,921.785889 1295.717773,923.476990 1295.912231,925.310181 
	C1295.989380,926.036377 1293.061768,927.805603 1291.558228,927.743591 
	C1290.380493,927.695007 1288.115356,924.985352 1288.375244,924.451172 
	C1289.216431,922.722107 1290.998657,921.450928 1292.802734,920.020630 
z"/>
<path fill="#44A7AC" opacity="1.000000" stroke="none" 
	d="
M679.072388,924.520874 
	C680.127258,920.953003 682.529114,918.926575 685.425049,920.355408 
	C687.178223,921.220215 688.514771,924.314697 688.725464,926.532227 
	C688.937317,928.761536 688.010132,931.533630 686.610046,933.295593 
	C685.923889,934.159241 681.878845,933.938721 681.366882,933.049683 
	C680.001953,930.679504 679.728088,927.681091 679.072388,924.520874 
z"/>
<path fill="#44A7AC" opacity="1.000000" stroke="none" 
	d="
M643.045044,929.505371 
	C643.030945,927.446106 642.463074,925.357422 643.259888,924.255676 
	C644.533508,922.494812 646.751343,920.281250 648.498657,920.341187 
	C650.023376,920.393494 652.244812,923.122559 652.717285,925.026550 
	C653.303406,927.388550 653.174133,930.581360 651.969971,932.582581 
	C650.115784,935.664124 645.365234,934.061218 643.045044,929.505371 
z"/>
<path fill="#43A5A9" opacity="1.000000" stroke="none" 
	d="
M810.768982,934.965576 
	C808.764343,933.950989 805.972534,933.067566 805.795105,931.814087 
	C805.360657,928.745117 805.333252,925.112427 806.643311,922.443481 
	C807.977844,919.724609 813.041626,920.709595 814.469055,923.461792 
	C816.439758,927.261414 814.955933,932.420593 810.768982,934.965576 
z"/>
<path fill="#45A8AD" opacity="1.000000" stroke="none" 
	d="
M769.315552,927.886108 
	C769.692871,924.119385 770.228088,920.749939 774.416321,920.091492 
	C777.923828,919.539978 780.107178,921.214355 780.893005,924.646790 
	C782.002747,929.494507 780.422180,933.959229 777.094910,934.771057 
	C773.261292,935.706299 770.665710,934.197205 769.760864,930.203003 
	C769.615540,929.561157 769.478027,928.917542 769.315552,927.886108 
z"/>
<path fill="#42A3A7" opacity="1.000000" stroke="none" 
	d="
M1165.166260,929.117432 
	C1166.326904,930.171875 1167.080322,931.261536 1167.833740,932.351196 
	C1166.224976,933.234497 1164.694824,934.445129 1162.973145,934.859131 
	C1162.146484,935.057922 1160.957886,933.751038 1159.933228,933.126160 
	C1160.747803,932.040466 1161.447266,930.832153 1162.422241,929.917419 
	C1162.963623,929.409302 1163.964966,929.391418 1165.166260,929.117432 
z"/>
<path fill="#43A5A9" opacity="1.000000" stroke="none" 
	d="
M1131.512207,924.007568 
	C1130.714233,923.030884 1129.880127,921.297302 1130.033203,921.205383 
	C1131.487915,920.330627 1133.233765,919.013550 1134.650635,919.256104 
	C1136.140991,919.511292 1137.363037,921.335083 1138.702271,922.473450 
	C1138.493774,922.986389 1138.285278,923.499329 1138.076782,924.012268 
	C1136.029175,924.012268 1133.981689,924.012268 1131.512207,924.007568 
z"/>
<path fill="#43A5A9" opacity="1.000000" stroke="none" 
	d="
M980.578186,921.756714 
	C985.040588,917.506348 987.483704,918.094482 989.408875,924.857910 
	C985.912659,923.793457 983.153687,922.953430 980.578186,921.756714 
z"/>
<path fill="#000000" opacity="1.000000" stroke="none" 
	d="
M743.849670,606.559814 
	C742.184937,601.093323 738.254272,599.317505 733.426575,599.130493 
	C728.966248,598.957642 724.494019,599.093567 719.801758,599.093567 
	C719.801758,589.290588 719.801758,580.014893 719.801758,570.369568 
	C776.986755,570.369568 834.214417,570.369568 891.964478,570.369568 
	C899.669617,592.181580 907.493225,614.328918 915.472534,636.916992 
	C906.541016,640.066528 897.976929,643.086426 888.958618,646.266541 
	C887.273132,642.989563 885.624084,639.803955 883.992981,636.609131 
	C872.888489,614.858032 855.509460,603.469727 830.705444,603.985107 
	C819.064575,604.226929 807.414612,604.026550 795.446045,604.026550 
	C795.446045,622.663086 795.446045,641.050781 795.446045,660.417053 
	C802.932251,659.929993 810.416626,660.047058 817.660400,658.784424 
	C823.667297,657.737244 827.525330,653.417297 828.010742,646.922668 
	C828.442932,641.140808 828.724243,635.347778 829.088928,629.279419 
	C837.593750,629.279419 846.154419,629.279419 854.912231,629.279419 
	C854.912231,660.100708 854.912231,690.710327 854.912231,721.659302 
	C846.377808,721.659302 837.821411,721.659302 828.711548,721.659302 
	C828.711548,717.188110 828.783020,712.745300 828.697998,708.305481 
	C828.451233,695.430481 823.102722,690.099731 810.395081,690.009094 
	C805.444275,689.973755 800.493103,690.003296 795.281250,690.003296 
	C795.281250,706.793091 795.012024,723.085632 795.403564,739.362244 
	C795.578918,746.650635 799.381165,749.685730 806.673157,749.914917 
	C811.297729,750.060242 815.930542,749.942017 820.795044,749.942017 
	C820.795044,759.780640 820.795044,769.173889 820.795044,778.782959 
	C787.166382,778.782959 753.737122,778.782959 719.935791,778.782959 
	C719.935791,769.356934 719.935791,759.969360 719.935791,749.919495 
	C723.930969,749.919495 728.058167,750.080078 732.168579,749.885620 
	C740.330688,749.499268 743.164795,746.868958 744.215881,738.875793 
	C744.518616,736.574158 744.595459,734.229004 744.596863,731.903687 
	C744.619507,695.076782 744.638733,658.249878 744.581543,621.423096 
	C744.574036,616.603027 744.139709,611.783630 743.849670,606.559814 
z"/>
<path fill="#010100" opacity="1.000000" stroke="none" 
	d="
M1138.978271,681.036865 
	C1140.948608,683.700500 1142.716431,686.068970 1144.979248,689.100281 
	C1150.620605,681.106079 1156.243652,673.709900 1161.202393,665.892395 
	C1164.094971,661.332397 1162.021851,658.407898 1156.440308,658.090454 
	C1154.463623,657.977966 1152.475342,658.072388 1150.151978,658.072388 
	C1150.151978,648.393616 1150.151978,638.996094 1150.151978,629.297852 
	C1172.834595,629.297852 1195.590332,629.297852 1218.697021,629.297852 
	C1218.697021,638.574890 1218.697021,647.969849 1218.697021,657.721130 
	C1217.735107,657.811279 1216.630615,658.040466 1215.537109,657.996948 
	C1208.373657,657.711731 1202.572754,660.473572 1197.937500,665.815063 
	C1187.675537,677.640808 1177.440186,689.489685 1166.904419,701.663879 
	C1169.531738,704.558289 1172.053467,707.370056 1174.611572,710.148193 
	C1183.528198,719.831665 1192.451172,729.509277 1201.383911,739.177917 
	C1207.851685,746.178528 1215.207031,751.262146 1225.724365,749.802185 
	C1225.724365,759.553528 1225.724365,768.960388 1225.724365,778.684937 
	C1194.267578,778.684937 1162.711426,778.684937 1130.894287,778.684937 
	C1130.894287,769.329529 1130.894287,760.061218 1130.894287,749.950378 
	C1133.851807,749.950378 1136.928833,750.078308 1139.991577,749.923096 
	C1145.854736,749.625854 1147.838623,746.419434 1144.520386,741.846802 
	C1137.199951,731.758728 1129.472778,721.965637 1121.580811,711.618408 
	C1114.010742,722.075073 1106.651245,731.936401 1099.651245,742.046509 
	C1096.449097,746.671326 1098.150024,749.623108 1103.746094,749.918945 
	C1107.030151,750.092590 1110.330811,749.950623 1113.837646,749.950623 
	C1113.837646,759.695923 1113.837646,768.976562 1113.837646,778.628967 
	C1089.744873,778.628967 1065.538208,778.628967 1041.073730,778.628967 
	C1041.073730,769.214050 1041.073730,759.824402 1041.073730,749.767700 
	C1053.709106,751.993225 1060.790649,744.136841 1067.859375,735.757141 
	C1078.167725,723.536926 1088.851318,711.633423 1099.762329,699.151733 
	C1098.704224,697.909912 1097.704590,696.674988 1096.640747,695.498352 
	C1088.929688,686.970703 1081.099487,678.547913 1073.517944,669.906860 
	C1066.991943,662.468811 1059.838745,656.602539 1048.722656,658.217102 
	C1048.722656,648.404297 1048.722656,639.026184 1048.722656,629.322021 
	C1078.604248,629.322021 1108.502686,629.322021 1138.717651,629.322021 
	C1138.717651,638.642395 1138.717651,648.040283 1138.717651,657.846741 
	C1136.986572,657.924683 1135.212646,657.937561 1133.451782,658.096436 
	C1128.187378,658.571350 1126.276245,661.663574 1128.971069,666.305908 
	C1131.884033,671.324097 1135.478638,675.946655 1138.978271,681.036865 
z"/>
<path fill="#010100" opacity="1.000000" stroke="none" 
	d="
M870.987183,526.999451 
	C850.331604,526.999451 830.173218,526.999451 809.661621,526.999451 
	C809.661621,520.049438 809.661621,513.322021 809.661621,505.954926 
	C812.796387,505.954926 815.905334,505.942810 819.014099,505.957764 
	C823.717468,505.980408 826.612793,503.899780 827.078003,499.022827 
	C827.330505,496.375946 827.701843,493.723114 827.705994,491.072479 
	C827.751831,462.073425 827.743530,433.074310 827.731628,404.075195 
	C827.728149,395.736938 825.433411,394.092834 817.267395,396.775482 
	C807.789062,399.889252 801.006714,406.343445 796.000244,414.740143 
	C793.282288,419.298584 790.916809,424.067169 788.117065,429.250671 
	C781.787231,427.027832 775.451843,424.803040 768.610046,422.400421 
	C774.898621,404.496582 781.090759,386.867371 787.455688,368.746124 
	C792.731079,370.672363 799.806152,365.313568 803.423828,374.000610 
	C812.073853,374.000610 821.043335,374.000610 830.012817,374.000610 
	C847.845581,374.000610 865.679138,373.913177 883.510559,374.068542 
	C887.450562,374.102875 890.872192,374.138885 891.217651,369.219635 
	C905.129761,368.433044 905.142517,368.428528 909.517395,380.768524 
	C914.387268,394.504913 919.231018,408.250641 924.210510,422.344391 
	C917.540771,424.699707 911.168152,426.950073 904.467224,429.316406 
	C902.029846,424.897522 899.700073,420.528320 897.234924,416.236908 
	C892.916687,408.719330 887.128601,402.619568 879.474304,398.428070 
	C878.026062,397.634949 876.460327,396.983582 874.873657,396.528534 
	C867.315674,394.360687 865.072388,396.040863 865.069336,403.844971 
	C865.057617,433.844025 865.052551,463.843109 865.076965,493.842163 
	C865.085571,504.468048 866.584778,505.935242 877.152832,505.993286 
	C878.959534,506.003204 880.766357,505.994690 882.876282,505.994690 
	C882.876282,513.024597 882.876282,519.748169 882.876282,526.999451 
	C879.057983,526.999451 875.271118,526.999451 870.987183,526.999451 
z"/>
<path fill="#010100" opacity="1.000000" stroke="none" 
	d="
M1124.884766,500.164398 
	C1129.284058,504.847931 1134.530884,506.449615 1140.660889,505.987274 
	C1140.660889,512.998291 1140.660889,519.613892 1140.660889,526.616089 
	C1117.662354,526.616089 1094.614746,526.616089 1071.281250,526.616089 
	C1071.281250,519.969666 1071.281250,513.235535 1071.281250,505.888641 
	C1073.940796,505.888641 1076.585571,506.142700 1079.159424,505.824005 
	C1082.335938,505.430664 1083.759033,503.384247 1081.733521,500.592712 
	C1076.276611,493.072296 1070.555054,485.744019 1064.631958,477.935394 
	C1059.145874,485.490021 1053.936157,492.397064 1049.032593,499.515045 
	C1046.019165,503.889221 1047.141235,505.771820 1052.448730,505.974884 
	C1054.433594,506.050812 1056.423706,505.987213 1058.742065,505.987213 
	C1058.742065,512.910828 1058.742065,519.649048 1058.742065,526.696228 
	C1041.265015,526.696228 1023.716553,526.696228 1005.975952,526.696228 
	C1005.975952,519.886841 1005.975952,513.276062 1005.975952,505.941071 
	C1016.277832,507.654602 1021.424622,500.357513 1027.079712,493.782410 
	C1034.133545,485.580963 1041.302124,477.478149 1048.979614,468.693695 
	C1040.468140,459.726562 1032.333130,450.536499 1023.435364,442.156219 
	C1020.736633,439.614410 1015.929810,439.310913 1011.450073,437.761353 
	C1011.450073,432.093323 1011.450073,425.364594 1011.450073,418.315369 
	C1033.147949,418.315369 1054.875000,418.315369 1076.871216,418.315369 
	C1076.871216,425.102875 1076.871216,431.840118 1076.871216,438.894043 
	C1075.638306,438.952332 1074.510620,438.936920 1073.400635,439.070312 
	C1069.068115,439.591003 1067.805908,441.713531 1070.188721,445.520599 
	C1073.533325,450.864258 1077.370972,455.899200 1081.533936,461.829987 
	C1085.782471,455.887512 1089.920654,450.582001 1093.495117,444.920532 
	C1095.676025,441.466309 1094.187744,439.370331 1089.993286,439.066071 
	C1088.518555,438.959106 1087.029785,439.049011 1085.275391,439.049011 
	C1085.275391,432.033966 1085.275391,425.287598 1085.275391,418.268677 
	C1101.900879,418.268677 1118.475220,418.268677 1135.324707,418.268677 
	C1135.324707,425.127777 1135.324707,431.882721 1135.324707,439.213226 
	C1126.378540,437.610992 1121.311035,443.085449 1116.367065,449.019135 
	C1110.307007,456.292389 1104.042114,463.394775 1097.550293,470.937592 
	C1106.693726,480.724365 1115.659058,490.320465 1124.884766,500.164398 
z"/>
<path fill="#010100" opacity="1.000000" stroke="none" 
	d="
M923.244568,659.908875 
	C923.244568,652.791016 923.244568,646.159546 923.244568,640.323486 
	C936.474365,637.832581 949.164062,635.548706 961.799072,632.994141 
	C965.185242,632.309509 968.713684,631.315125 971.637207,629.562744 
	C978.195740,625.631470 985.170593,625.622192 993.020996,626.246094 
	C993.020996,627.939453 993.020874,629.694702 993.020996,631.449890 
	C993.023254,667.277039 993.013550,703.104248 993.035950,738.931396 
	C993.041870,748.402527 994.569397,749.899902 1004.055481,749.986328 
	C1007.689331,750.019470 1011.323792,749.991699 1015.175232,749.991699 
	C1015.175232,759.716125 1015.175232,768.993042 1015.175232,778.635437 
	C984.817688,778.635437 954.415405,778.635437 923.628296,778.635437 
	C923.628296,769.419006 923.628296,760.037170 923.628296,749.946289 
	C928.172424,749.946289 932.771667,749.948792 937.370911,749.945557 
	C942.106201,749.942261 944.935608,747.822144 945.212219,742.872070 
	C945.342224,740.547180 945.589905,738.222656 945.593323,735.897705 
	C945.623535,715.067932 945.611145,694.238220 945.611389,673.408447 
	C945.611389,671.776733 945.611450,670.145020 945.611450,668.109741 
	C938.072998,668.109741 930.976929,668.109741 923.244568,668.109741 
	C923.244568,665.273071 923.244568,662.834167 923.244568,659.908875 
z"/>
<path fill="#000000" opacity="1.000000" stroke="none" 
	d="
M940.051514,445.998230 
	C937.917297,445.998230 936.265564,445.998230 934.253174,445.998230 
	C934.253174,439.094421 934.253174,432.370880 934.253174,426.225250 
	C945.066895,423.997406 955.990479,422.173035 966.656006,419.367706 
	C971.899658,417.988525 976.740234,415.124268 982.451965,416.013519 
	C982.924744,416.087128 983.392334,416.193787 984.386963,416.386963 
	C984.386963,418.157471 984.386963,419.930328 984.386963,421.703186 
	C984.387268,445.854462 984.380127,470.005707 984.391052,494.156982 
	C984.396240,505.619995 984.755859,505.969940 996.045837,506.001068 
	C997.519226,506.005127 998.992676,506.001587 1000.762024,506.001587 
	C1000.762024,513.006348 1000.762024,519.732788 1000.762024,526.998291 
	C989.627930,526.998291 978.524841,526.998291 967.421753,526.998291 
	C956.453003,526.998291 945.484314,526.998291 934.204712,526.998291 
	C934.204712,520.002686 934.204712,513.279907 934.204712,505.977753 
	C937.302185,505.977753 940.415955,505.928131 943.527588,505.989655 
	C947.881592,506.075714 949.958557,504.012634 949.951111,499.646240 
	C949.921082,482.003357 949.938660,464.360352 949.938660,445.998230 
	C946.707397,445.998230 943.620667,445.998230 940.051514,445.998230 
z"/>
<path fill="#020100" opacity="1.000000" stroke="none" 
	d="
M953.171875,609.963684 
	C943.255920,602.445435 939.465820,592.756836 942.700684,581.181946 
	C945.974426,569.467590 954.412292,563.009277 966.421509,561.337952 
	C980.145996,559.427917 993.781616,570.170837 995.914062,584.481567 
	C997.888672,597.733337 987.985779,611.622986 974.900024,614.136169 
	C967.200684,615.614868 960.051575,614.546143 953.171875,609.963684 
z"/>
<path fill="#030200" opacity="1.000000" stroke="none" 
	d="
M985.894287,382.443054 
	C988.320679,391.931152 985.688599,399.405396 977.921631,404.544189 
	C970.945679,409.159729 963.431091,409.058929 956.271484,404.725464 
	C949.466492,400.606598 946.059509,392.773407 947.505737,385.558777 
	C949.213196,377.040405 955.180603,371.192780 963.828064,369.563904 
	C971.570007,368.105652 979.671936,371.677002 983.983643,378.507660 
	C984.688721,379.624573 985.185913,380.872650 985.894287,382.443054 
z"/>
</svg>